<?xml version="1.0" encoding="iso-8859-1"?>
<!-- Generator: Adobe Illustrator 19.0.0, SVG Export Plug-In . SVG Version: 6.00 Build 0)  -->
<svg version="1.1" id="Capa_1" xmlns="http://www.w3.org/2000/svg" xmlns:xlink="http://www.w3.org/1999/xlink" x="0px" y="0px"
	 viewBox="0 0 512 512" style="enable-background:new 0 0 512 512;" xml:space="preserve">
<path style="fill:#875450;" d="M14.822,510.986L1.014,497.178c-1.352-1.352-1.352-3.544,0-4.897l222.379-222.379l18.704,18.704
	L19.719,510.986C18.366,512.338,16.174,512.338,14.822,510.986z"/>
<circle style="fill:#F7F8EB;" cx="340.95" cy="171.05" r="171.05"/>
<path style="fill:#F04348;" d="M511.995,171.054c0,94.469-76.571,171.038-171.042,171.038c-14.577,0-28.747-1.818-42.259-5.251
	c125.335-5.925,187.642-100.363,167.703-192.371c-11.364-51.976-51.335-89.579-103.312-99.328
	c-50.363-8.119-99.283,12.273-124.049,61.067c-13.151,25.894-14.609,55.221-3.245,82.823c12.994,29.232,38.983,50.346,71.461,53.606
	c38.983,3.245,81.211-24.374,79.596-66.6c-1.63-17.869-9.75-35.722-25.989-45.471c-14.624-8.119-29.233-8.119-42.228,3.245
	c-6.505,6.505-11.38,14.624-9.75,24.358c1.63,6.505,11.364,11.38,18.48,6.395c4.358-4.295,11.035-3.887,15.471,2.179
	c6.646,10.925,1.787,27.163-9.593,33.668c-11.364,4.859-24.358,6.489-35.723,1.614c-27.619-12.994-38.983-48.716-27.619-76.334
	c12.994-29.233,47.102-47.102,79.58-43.857c25.989,3.26,47.103,16.239,63.357,37.368c19.484,27.602,22.728,58.465,14.609,89.328
	c-19.484,64.97-95.819,95.817-157.546,73.09c-68.216-22.744-100.694-99.078-82.841-165.678
	c8.057-29.515,23.873-54.609,44.062-76.021C260.839,15,299.148,0,340.953,0C435.424,0,511.995,76.585,511.995,171.054z"/>
<g>
	<path style="fill:#D83D49;" d="M333.241,200.412c11.38-6.505,16.239-22.743,9.593-33.668c-4.436-6.066-11.113-6.474-15.471-2.179
		c-2.642,1.851-5.644,2.338-8.459,1.891c0.078,0.101,0.16,0.191,0.236,0.295c6.646,10.925,1.787,27.163-9.593,33.669
		c-2.737,1.17-5.57,2.147-8.451,2.897C311.556,206.513,323.052,204.769,333.241,200.412z"/>
	<path style="fill:#D83D49;" d="M427.446,208.531c8.119-30.863,4.875-61.726-14.609-89.328
		c-16.255-21.129-37.368-34.107-63.357-37.368c-6.625-0.662-13.315-0.431-19.883,0.581c24.245,4.009,44.095,16.71,59.546,36.794
		c19.484,27.602,22.728,58.466,14.609,89.328c-13.976,46.605-57.206,75.648-103.313,79.957
		C354.655,293.567,411.087,263.079,427.446,208.531z"/>
	<path style="fill:#D83D49;" d="M340.953,0c-4.023,0-8.013,0.142-11.967,0.415c88.999,6.028,159.315,80.12,159.315,170.646
		c0,90.468-70.225,164.509-159.143,170.619c3.899,0.265,7.83,0.411,11.795,0.411c94.471,0,171.042-76.569,171.042-171.038
		S435.424,0,340.953,0z"/>
</g>
<g>
</g>
<g>
</g>
<g>
</g>
<g>
</g>
<g>
</g>
<g>
</g>
<g>
</g>
<g>
</g>
<g>
</g>
<g>
</g>
<g>
</g>
<g>
</g>
<g>
</g>
<g>
</g>
<g>
</g>
</svg>
