<svg id="Icons" enable-background="new 0 0 512 512" height="512" viewBox="0 0 512 512" width="512" xmlns="http://www.w3.org/2000/svg"><g><circle cx="256" cy="256" fill="#ee6781" r="256"/><g><g><path d="m444.74 160.67-42.71 61.01c-9.36 13.37-22.84 23.3-38.38 28.28l-24.11 7.72c.73 6.22.56 12.84-.67 19.56l-.75 4.09-5.37 29.33-7.24 39.53-2.92 15.92-8.73 47.7-8 43.67c-3.48 19.01-19.41 32.66-37.17 32.66h-25.38c-17.76 0-33.69-13.65-37.17-32.66l-8-43.67-8.74-47.7-10.15-55.45-6.12-33.42c-1.23-6.72-1.4-13.34-.67-19.56l-24.11-7.72c-15.54-4.98-29.02-14.91-38.38-28.28l-42.71-61.01c-5.16-7.37-5.1-17.19.14-24.5 5.85-8.15 16.61-11.09 25.79-7.02l61.75 27.33c3.94 1.74 7.17 4.56 9.43 8.02 2.25 3.46 3.52 7.56 3.52 11.87 0 14.93 6.21 29.18 17.14 39.35l8.05 7.48c3.68-1.84 7.73-2.86 12.07-2.86h101.7c4.34 0 8.39 1.02 12.07 2.86l8.05-7.48c5.47-5.08 9.75-11.19 12.67-17.89s4.47-13.99 4.47-21.46c0-8.61 5.08-16.41 12.95-19.89l61.75-27.33c9.18-4.07 19.94-1.13 25.79 7.02 5.24 7.31 5.3 17.13.14 24.5z" fill="#a26d5a"/><path d="m338.87 277.24-.75 4.09-12.61 68.86-11.65 63.62-8 43.67c-.1.53-.2 1.05-.32 1.57-.03.16-.07.33-.11.49-.07.3-.15.61-.24.91-.05.22-.11.44-.17.65-.1.39-.21.78-.34 1.17-.13.42-.26.84-.41 1.25-.04.15-.09.29-.15.43-.13.38-.27.76-.42 1.14-.03.11-.08.22-.13.33-.16.42-.33.83-.52 1.24-.02.07-.05.14-.09.2-.17.41-.35.81-.55 1.2-.05.13-.11.25-.17.36-.16.33-.32.65-.5.97-.2.4-.41.79-.64 1.17-.01.02-.01.04-.02.05-.23.4-.46.79-.7 1.17-.65 1.06-1.35 2.08-2.09 3.07-.67.9-1.37 1.76-2.12 2.59-.37.41-.75.82-1.14 1.22-.76.8-1.56 1.57-2.4 2.28-1.24 1.1-2.55 2.1-3.91 3-.46.3-.92.6-1.38.88-.93.58-1.89 1.1-2.86 1.58-.5.24-1.01.48-1.53.71-.48.21-.96.41-1.45.6-.46.18-.93.35-1.4.51-.14.05-.28.1-.43.15-.31.1-.62.2-.93.29-.22.07-.44.13-.66.19-.38.11-.76.21-1.14.3-.06.01-.12.03-.18.04-.4.1-.81.19-1.22.26-.17.05-.35.08-.52.11-.27.05-.54.1-.82.13-.3.06-.61.1-.91.14-.44.06-.89.11-1.33.15-.54.06-1.07.09-1.61.12-.55.03-1.11.04-1.66.04h-12.69v-269.8h50.85c22.64 0 37.4 27.5 32.02 56.9z" fill="#c17e62"/></g><g><path d="m313.86 413.81-8 43.67c-3.48 19.01-19.41 32.66-37.17 32.66h-25.38c-17.76 0-33.69-13.65-37.17-32.66l-8-43.67c28.09-38.098 87.462-38.261 115.72 0z" fill="#2e3140"/><path d="m313.86 413.81-8 43.67c-.1.53-.2 1.05-.32 1.57-1.012 4.481-2.74 8.826-5.16 12.73-5.542 9.067-14.858 15.865-25.36 17.78-4.293.995-14.554.442-19.02.58v-105.12c23.607.067 44.322 11.037 57.86 28.79z" fill="#3e4e60"/></g><g><path d="m332.75 310.66-7.24 39.53-2.92 15.92h-7.07c-15.32 0-27.73-12.41-27.73-27.72 0-7.66 3.1-14.59 8.12-19.61s11.95-8.12 19.61-8.12z" fill="#fff"/><path d="m224.21 338.39c0 7.65-3.1 14.59-8.12 19.6-5.02 5.02-11.95 8.12-19.61 8.12h-7.08l-10.15-55.45h17.23c15.32 0 27.73 12.41 27.73 27.73z" fill="#c2aacf"/></g><g><g><g><path d="m307.215 234.092 19.756-18.375c10.929-10.165 17.137-24.418 17.137-39.343 0-8.61 5.077-16.41 12.951-19.895l61.753-27.333c9.176-4.062 19.944-1.128 25.791 7.028 5.239 7.307 5.295 17.126.138 24.493l-42.71 61.014c-9.358 13.368-22.839 23.301-38.38 28.278l-26.757 8.569z" fill="#c17e62"/></g><path d="m427.536 141.33h-.16c-1 0-1.97.21-2.9.62l-25.47 11.27-36.28 16.06c-2.7 1.2-4.49 3.83-4.61 6.76-.41 9.49-2.37 18.78-5.98 27.31-3.6 8.53-8.85 16.31-15.8 22.78-2.01 1.86-3 4.38-3 6.89 0 2.7 1.15 5.39 3.43 7.26 1.95 1.61 4.59 2.12 7 1.35l15.44-4.95c11.36-3.64 21.37-10.5 28.84-19.71v-.01c.92-1.12 1.79-2.27 2.62-3.46l42.61-60.86c3.33-4.55-.15-11.31-5.74-11.31z" fill="#fff"/><path d="m380.57 215.312c3.41.756 4.663 5.033 2.132 7.44-6.642 6.318-14.661 11.097-23.497 13.928l-15.44 4.95c-2.41.77-5.05.26-7-1.35-2.28-1.87-3.43-4.56-3.43-7.26 0-2.51.99-5.03 3-6.89 6.95-6.47 12.2-14.25 15.8-22.78 3.61-8.53 5.57-17.82 5.98-27.31.12-2.93 1.91-5.56 4.61-6.76l20.985-9.289c3.735-1.653 7.133 2.884 4.496 6.003l-12.178 14.404c-1.727 2.043-.275 5.172 2.4 5.172h9.219c3.679 0 5.26 4.667 2.339 6.903l-17.603 15.942c-1.891 1.713-1.062 4.846 1.429 5.398z" fill="#c2aacf"/><path d="m366.768 159.688c1.517 3.613 5.704 5.278 9.287 3.692l31.104-13.767c3.778-1.672 5.293-6.235 3.266-9.835-1.769-3.142-5.635-4.426-8.932-2.966l-31.104 13.767c-3.487 1.543-5.097 5.593-3.621 9.109z" fill="#d48d77"/></g><g><path d="m78.724 152.64 42.61 60.86c.83 1.19 1.7 2.34 2.62 3.46v.01c7.47 9.21 17.48 16.07 28.84 19.71l15.44 4.95c2.41.77 5.05.26 7-1.35 2.28-1.87 3.43-4.56 3.43-7.26 0-2.51-.99-5.03-3-6.89-6.95-6.47-12.2-14.25-15.8-22.78-3.61-8.53-5.57-17.82-5.98-27.31-.12-2.93-1.91-5.56-4.61-6.76l-36.28-16.06-25.47-11.27c-.93-.41-1.9-.62-2.9-.62h-.16c-5.59 0-9.07 6.76-5.74 11.31z" fill="#c2aacf"/><path d="m131.43 215.312c-3.41.756-4.663 5.033-2.132 7.44 6.642 6.318 14.661 11.097 23.497 13.928l15.44 4.95c2.41.77 5.05.26 7-1.35 2.28-1.87 3.43-4.56 3.43-7.26 0-2.51-.99-5.03-3-6.89-6.95-6.47-12.2-14.25-15.8-22.78-3.61-8.53-5.57-17.82-5.98-27.31-.12-2.93-1.91-5.56-4.61-6.76l-20.985-9.289c-3.735-1.653-7.133 2.884-4.496 6.003l12.178 14.404c1.727 2.043.275 5.172-2.4 5.172h-9.219c-3.679 0-5.26 4.667-2.339 6.903l17.603 15.942c1.891 1.713 1.062 4.846-1.429 5.398z" fill="#fff"/><path d="m145.232 159.688c-1.517 3.613-5.704 5.278-9.287 3.692l-31.104-13.767c-3.778-1.672-5.293-6.235-3.266-9.835 1.769-3.142 5.635-4.426 8.932-2.966l31.104 13.767c3.487 1.543 5.097 5.593 3.621 9.109z" fill="#c17e62"/></g></g><g><g><path d="m304.683 462.273c-5.042 16.455-19.723 27.868-35.988 27.868h-12.695v-72.568h17.355c-.58 22.774 12.981 40.648 31.328 44.7z" fill="#fff"/><path d="m207.317 462.273c5.042 16.455 19.723 27.868 35.988 27.868h12.695v-72.568h-17.355c.58 22.774-12.981 40.648-31.328 44.7z" fill="#c2aacf"/></g><g><g><path d="m281.543 414.968-.891 23.9c-.222 5.959-4.821 10.709-10.278 10.709h-28.748c-5.457 0-10.056-4.75-10.278-10.709l-.891-23.9c-.605-16.217 10.815-29.946 25.543-29.946s26.148 13.729 25.543 29.946z" fill="#3e4e60"/><path d="m281.543 414.968-.891 23.9c-.222 5.959-4.821 10.709-10.278 10.709h-14.374v-64.555c14.728 0 26.148 13.729 25.543 29.946z" fill="#3f5d77"/></g><g><path d="m304.562 470.623c-1.046-2.556-3.965-3.78-6.521-2.733-3.567 1.46-8.435 3.172-9.717 3.295-3.925.341-10.908-.81-17.069-1.826-3.632-.599-7.134-1.176-10.255-1.52v-8.364c0-2.761-2.239-5-5-5s-5 2.239-5 5v8.364c-3.121.344-6.623.92-10.255 1.52-6.161 1.016-13.143 2.169-17.068 1.826-1.157-.111-5.698-1.65-9.718-3.295-2.552-1.044-5.474.179-6.521 2.734-1.045 2.556.178 5.475 2.733 6.521 2.112.865 9.266 3.708 12.636 4.002 5.183.451 12.493-.755 19.565-1.922 5.09-.839 10.353-1.708 13.627-1.708s8.538.868 13.627 1.708c6.032.995 12.238 2.019 17.147 2.019.847 0 1.656-.031 2.418-.097 3.37-.293 10.524-3.137 12.637-4.002 2.557-1.047 3.78-3.967 2.734-6.522z" fill="#151516"/><g><path d="m256 448.8v10.675c-.187.247-.385.481-.596.702-3.111 3.267-8.154 3.267-11.323 0l-2.613-2.689-6.238-6.413c-3.294-3.396-3.5-8.97-.399-12.454 1.566-1.759 3.664-2.642 5.794-2.642s4.269.883 5.916 2.642l8.851 9.452c.216.236.418.478.608.727z" fill="#151516"/><path d="m276.77 451.075-8.851 9.102c-3.169 3.267-8.212 3.267-11.323 0-.211-.221-.409-.455-.596-.702v-10.675c.19-.249.392-.491.607-.727l8.851-9.452c1.647-1.759 3.786-2.642 5.917-2.642s4.228.883 5.794 2.642c3.101 3.483 2.895 9.058-.399 12.454z" fill="#2e3140"/></g></g></g><g><g><path d="m345.519 316.001c8.559 4.942 11.537 15.826 6.717 24.424-.03.079-.071.151-.113.224l-6.276 10.871c-2.488 4.31-6.493 7.214-10.955 8.41-4.469 1.208-9.378.701-13.699-1.794-8.03-4.636-11.155-14.514-7.537-22.81.268-.632.58-1.254.927-1.856l6.276-10.871c2.495-4.322 6.505-7.208 10.967-8.403 4.463-1.197 9.371-.691 13.693 1.805z" fill="#3e4e60"/><path d="m345.519 316.001c8.559 4.942 11.537 15.826 6.717 24.424-9.649 5.119-22.208 5.075-33.03-1.173-2.01-1.161-3.868-2.474-5.55-3.927.268-.632.58-1.254.927-1.856l6.276-10.871c2.495-4.322 6.505-7.208 10.967-8.403 4.463-1.196 9.371-.69 13.693 1.806z" fill="#2e3140"/><path d="m329.844 323.329-3.776 6.541c-1.626 2.816-.661 6.418 2.155 8.044 2.816 1.626 6.418.661 8.044-2.155l3.776-6.541c1.626-2.816.661-6.418-2.155-8.044-2.817-1.627-6.418-.662-8.044 2.155z" fill="#fff"/></g><g><path d="m166.481 316.001c-8.559 4.942-11.537 15.826-6.717 24.424.03.079.071.151.113.224l6.276 10.871c2.488 4.31 6.493 7.214 10.955 8.41 4.469 1.208 9.378.701 13.699-1.794 8.03-4.636 11.155-14.514 7.537-22.81-.268-.632-.58-1.254-.927-1.856l-6.276-10.871c-2.495-4.322-6.505-7.208-10.967-8.403-4.463-1.197-9.371-.691-13.693 1.805z" fill="#3e4e60"/><path d="m166.481 316.001c-8.559 4.942-11.537 15.826-6.717 24.424 9.649 5.119 22.208 5.075 33.03-1.173 2.01-1.161 3.868-2.474 5.55-3.927-.268-.632-.58-1.254-.927-1.856l-6.276-10.871c-2.495-4.322-6.505-7.208-10.967-8.403-4.463-1.196-9.371-.69-13.693 1.806z" fill="#2e3140"/><path d="m182.156 323.329 3.776 6.541c1.626 2.816.661 6.418-2.155 8.044-2.816 1.626-6.418.661-8.044-2.155l-3.776-6.541c-1.626-2.816-.661-6.418 2.155-8.044 2.817-1.627 6.418-.662 8.044 2.155z" fill="#fff"/></g></g><g><path d="m256 322.297c31.709 0 60.726-25.706 60.726-57.415 0-17.98-14.575-32.555-32.555-32.555h-28.171z" fill="#d48d77"/><path d="m256 322.297c-31.709 0-60.726-25.706-60.726-57.415 0-17.98 14.575-32.555 32.555-32.555h28.171z" fill="#c17e62"/></g></g><g><g><path d="m404.246 69.04c0 2.38-.91 4.77-2.73 6.59l-98.07 98.06c-6.99 7-10.92 16.48-10.92 26.37v41.93c0 5.12-4.15 9.26-9.26 9.26-5.119.011-9.276-4.156-9.27-9.26v-137.28c0-4.11 2.8-7.56 6.59-8.56 5.5-1.513 11.193 2.828 11.11 8.56v34.03c0 4.19 5.06 6.29 8.03 3.33l32.34-32.34c8.51-8.52 13.29-20.06 13.29-32.1v-31.47c-.058-7.933 9.819-11.868 15.23-6.31 1.62 1.61 2.62 3.85 2.62 6.31v32.04c0 3.45 4.18 5.18 6.62 2.74l18.5-18.5c1.28-1.28 2.85-2.12 4.5-2.49 5.504-1.493 11.646 3.309 11.42 9.09z" fill="#3e4e60"/><path d="m373.858 76.908 14.468-14.468c1.191-1.191 2.634-2.002 4.158-2.406.207-.055.436.02.572.186 1.407 1.713 2.11 3.811 2.11 5.9 0 2.38-.91 4.77-2.73 6.59l-98.07 98.07c-6.99 6.99-10.92 16.48-10.92 26.37v41.92c0 4.265-2.878 7.86-6.802 8.941-.21.058-.442-.016-.579-.185-1.292-1.593-2.069-3.625-2.069-5.836v-137.28c0-3.976 2.621-7.335 6.224-8.455.218-.068.464.01.602.192 1.128 1.483 1.794 3.33 1.794 5.343v34.04c0 .283.027.554.071.816-.042.332-.071.668-.071 1.012v7.177c0 .054.001.107.002.161.107 5.771 7.31 8.346 11.097 3.989l5.999-6.901c.008-.009.021-.023.029-.031l32.324-32.324c8.51-8.52 13.29-20.06 13.29-32.1v-31.469c0-4.028 2.663-7.419 6.328-8.538.216-.066.46.011.598.191 1.158 1.504 1.844 3.383 1.844 5.437v32.03c0 .023.005.045.005.068 0 .034-.005.067-.005.102 0 .274.011.546.033.814.555 6.843 8.93 9.943 14.126 5.456z" fill="#3f5d77"/></g><g><path d="m107.754 69.04c0 2.38.91 4.77 2.73 6.59l98.07 98.06c6.99 7 10.92 16.48 10.92 26.37v41.93c0 5.12 4.15 9.26 9.26 9.26 5.119.011 9.276-4.156 9.27-9.26v-137.28c0-4.11-2.8-7.56-6.59-8.56-5.5-1.513-11.193 2.828-11.11 8.56v34.03c0 4.19-5.06 6.29-8.03 3.33l-32.34-32.34c-8.51-8.52-13.29-20.06-13.29-32.1v-31.47c.058-7.933-9.819-11.868-15.23-6.31-1.62 1.61-2.62 3.85-2.62 6.31v32.04c0 3.45-4.18 5.18-6.62 2.74l-18.5-18.5c-1.28-1.28-2.85-2.12-4.5-2.49-5.504-1.493-11.646 3.309-11.42 9.09z" fill="#2e3140"/><path d="m138.142 76.908-14.468-14.468c-1.191-1.191-2.634-2.002-4.158-2.406-.207-.055-.436.02-.572.186-1.407 1.713-2.11 3.811-2.11 5.9 0 2.38.91 4.77 2.73 6.59l98.07 98.07c6.99 6.99 10.92 16.48 10.92 26.37v41.92c0 4.265 2.878 7.86 6.802 8.941.21.058.442-.016.579-.185 1.292-1.593 2.069-3.625 2.069-5.836v-137.28c0-3.976-2.621-7.335-6.224-8.455-.218-.068-.464.01-.602.192-1.128 1.483-1.794 3.33-1.794 5.343v34.04c-.063.631-.039 1.198 0 1.828v7.177c0 .054-.001.107-.002.161-.107 5.771-7.31 8.346-11.097 3.989-.029-.031-5.999-6.905-6.028-6.932 0 0-32.324-32.324-32.324-32.324-8.51-8.52-13.29-20.06-13.29-32.1v-31.469c0-4.028-2.663-7.419-6.328-8.538-.216-.066-.46.011-.598.191-1.158 1.504-1.844 3.383-1.844 5.437v32.03c-.001.329-.003.66-.033.984-.555 6.843-8.93 9.943-14.126 5.456z" fill="#3e4e60"/></g></g></g></g></svg>